<svg width="112" height="123" viewBox="0 0 112 123" fill="none" xmlns="http://www.w3.org/2000/svg">
<g clip-path="url(#clip0_81_2)">
<path fill-rule="evenodd" clip-rule="evenodd" d="M76.58 59.19H104.32C108.08 59.19 111.16 62.27 111.16 66.03V94.07C111.16 97.83 108.08 100.91 104.32 100.91H76.58C65.11 100.91 55.72 91.52 55.72 80.05C55.73 68.57 65.1 59.19 76.58 59.19ZM45.13 20.13L49.67 24.42L59.5 14.45C60.37 13.57 60.91 12.87 61.98 13.96L65.44 17.51C66.58 18.63 66.52 19.29 65.45 20.34L51.65 33.36C49.39 35.58 49.78 35.71 47.49 33.44L39.31 25.85C38.83 25.33 38.88 24.81 39.41 24.29L43.43 20.12C44.02 19.49 44.5 19.53 45.13 20.13ZM10.98 26.25H28.68C28.65 25.75 28.63 25.25 28.63 24.74C28.64 11.08 39.71 0 53.38 0C67.04 0 78.12 11.08 78.12 24.74C78.12 25.24 78.1 25.74 78.08 26.24L84.59 26.23C91.24 26.22 96.68 31.43 96.68 38.08V40.06C99.96 42.23 102.13 45.95 102.13 50.15V54.51H94.45V51.6C94.45 48.47 91.89 45.92 88.77 45.92H18.12V39.59C18.12 38.75 18.81 38.06 19.65 38.06H32.53C31.68 36.74 30.96 35.33 30.37 33.85H12.69C10.49 33.85 8.7 35.65 8.7 37.84V110.47C8.7 112.67 10.5 114.46 12.69 114.46H90.39C92.59 114.46 94.38 112.66 94.38 110.47V105.9H102.26V113.45H102.24C102.21 118.67 96.64 122.88 91.14 122.88H10.95C4.93 122.87 0 117.94 0 111.92V37.23C0 31.19 4.94 26.25 10.98 26.25ZM76.38 33.84C75.79 35.32 75.07 36.73 74.22 38.05H90.02C90.46 38.05 90.89 38.07 91.32 38.12V37.83C91.32 35.63 89.52 33.84 87.33 33.84H76.38ZM77.63 66.83H102.24V93.27H77.63C70.36 93.27 64.41 87.32 64.41 80.05C64.41 72.77 70.36 66.83 77.63 66.83ZM83.68 75.67C86.17 75.67 88.19 77.69 88.19 80.18C88.19 82.67 86.17 84.69 83.68 84.69C81.19 84.69 79.17 82.67 79.17 80.18C79.17 77.69 81.19 75.67 83.68 75.67Z" fill="#DFA100"/>
</g>
<defs>
<clipPath id="clip0_81_2">
<rect width="111.16" height="122.88" fill="white"/>
</clipPath>
</defs>
</svg>
