<svg width="100" height="100" viewBox="0 0 100 100" fill="none" xmlns="http://www.w3.org/2000/svg">
<path d="M50 0C22.3729 0 0 22.3729 0 50C0 77.6271 22.3729 100 50 100C77.6271 100 100 77.6271 100 50C100 22.3729 77.6271 0 50 0ZM50 14.9576C59.1525 14.9576 66.5254 22.3729 66.5254 31.4831C66.5254 40.5932 59.1102 48.0085 50 48.0085C40.8475 48.0085 33.4746 40.5932 33.4746 31.4831C33.4746 22.3729 40.8475 14.9576 50 14.9576ZM50 86.9492C40.8898 86.9492 32.5424 83.6441 26.1017 78.1356C24.5339 76.7797 23.6441 74.8305 23.6441 72.7966C23.6441 63.517 31.1441 56.1441 40.3814 56.1441H59.6186C68.8983 56.1441 76.3559 63.5593 76.3559 72.7966C76.3559 74.8729 75.4661 76.822 73.8983 78.1356C67.4576 83.6017 59.1102 86.9492 50 86.9492Z" fill="white"/>
</svg>
