<svg width="93" height="98" viewBox="0 0 93 98" fill="none" xmlns="http://www.w3.org/2000/svg">
<path d="M27.7734 75.4688H16.6016C15.3906 75.4688 14.375 74.4531 14.375 73.2422V72.1484C14.375 70.9375 15.3906 69.9219 16.6016 69.9219H26.7578C26.6406 68.8281 26.6016 67.7344 26.6016 66.6016C26.6016 65.8594 26.6406 65.1172 26.6797 64.375H16.6016C15.3906 64.375 14.375 63.3594 14.375 62.1484V61.0547C14.375 59.8437 15.3906 58.8281 16.6016 58.8281H27.5C27.9297 56.9141 28.5547 55.0391 29.2969 53.2812H16.6016C15.3906 53.2812 14.375 52.2656 14.375 51.0547V49.9609C14.375 48.75 15.3906 47.7344 16.6016 47.7344H32.2266C38.3984 38.3594 48.9453 32.1875 61.0156 32.1875C65.3125 32.1875 69.4531 32.9688 73.2422 34.4141V19.0234C73.2422 16.4844 71.0938 14.4141 68.4375 14.4141H65.4688V23.2812H7.73437V14.4141H4.80469C2.14844 14.4141 0 16.4844 0 19.0234V85.3125C0 87.8516 2.14844 89.9219 4.80469 89.9219H35.7422C31.9922 85.8984 29.2188 80.9375 27.7734 75.4688ZM14.375 38.8672C14.375 37.6562 15.3906 36.6406 16.6016 36.6406H35.4688C36.6797 36.6406 37.6953 37.6562 37.6953 38.8672V39.9609C37.6953 41.1719 36.6797 42.1875 35.4688 42.1875H16.6016C15.3906 42.1875 14.375 41.1719 14.375 39.9609V38.8672Z" fill="white"/>
<path d="M57.6953 8.86719H46.0156C45.7422 3.90625 41.6406 0 36.6016 0C31.5625 0 27.5 3.94531 27.1875 8.86719H15.5078C12.4219 8.86719 9.96094 11.3672 9.96094 14.4141C9.96094 14.4141 9.96094 19.4922 9.96094 21.0938H63.2422C63.2422 19.4141 63.2422 14.4141 63.2422 14.4141C63.2422 11.3672 60.7422 8.86719 57.6953 8.86719ZM36.6016 13.3203C34.4531 13.3203 32.6953 11.6016 32.6953 9.41406C32.6953 7.26562 34.4141 5.50781 36.6016 5.50781C38.75 5.50781 40.5078 7.22656 40.5078 9.41406C40.4688 11.5625 38.75 13.3203 36.6016 13.3203Z" fill="white"/>
<path d="M83.0469 44.5703C70.8984 32.4219 51.1719 32.4219 39.0234 44.5703C26.875 56.7188 26.875 76.4453 39.0234 88.5937C51.1719 100.742 70.8984 100.742 83.0469 88.5937C95.1953 76.4844 95.1953 56.7578 83.0469 44.5703ZM79.6875 61.9531L61.1328 80.5078C59.8438 81.7969 57.7734 81.7969 56.4844 80.5078L55.3125 79.3359C55.1172 79.1406 54.9609 78.9062 54.8047 78.6719C54.5703 78.5156 54.3359 78.3594 54.1406 78.1641L44.8828 68.9062C43.5938 67.6172 43.5938 65.5469 44.8828 64.2578L46.0547 63.0859C47.3438 61.7969 49.4141 61.7969 50.7031 63.0859L58.8281 71.2109L73.9062 56.1328C75.1953 54.8438 77.2656 54.8438 78.5547 56.1328L79.7266 57.3047C80.9375 58.5938 80.9375 60.7031 79.6875 61.9531Z" fill="white"/>
</svg>
