<svg width="94" height="100" viewBox="0 0 94 100" fill="none" xmlns="http://www.w3.org/2000/svg">
<path d="M57.7344 8.86719H46.0547C45.7812 3.90625 41.6797 0 36.6406 0C31.6016 0 27.5391 3.94531 27.2266 8.86719H15.5469C12.4609 8.86719 10 11.3672 10 14.4141C10 14.4141 10 19.4922 10 21.0938H63.2812C63.2812 19.4141 63.2812 14.4141 63.2812 14.4141C63.2812 11.3672 60.7812 8.86719 57.7344 8.86719ZM36.6406 13.3203C34.4922 13.3203 32.7344 11.6016 32.7344 9.41406C32.7344 7.26562 34.4531 5.50781 36.6406 5.50781C38.7891 5.50781 40.5469 7.22656 40.5469 9.41406C40.5078 11.5625 38.7891 13.3203 36.6406 13.3203Z" fill="white"/>
<path d="M27.7734 76.0547H16.6016C15.3906 76.0547 14.375 75.0391 14.375 73.8281V72.7344C14.375 71.5234 15.3906 70.5078 16.6016 70.5078H26.7578C26.6406 69.4141 26.6016 68.3203 26.6016 67.1875C26.6016 66.4453 26.6406 65.7031 26.6797 64.9609H16.6016C15.3906 64.9609 14.375 63.9453 14.375 62.7344V61.6406C14.375 60.4297 15.3906 59.4141 16.6016 59.4141H27.5C27.9297 57.5 28.5547 55.625 29.2969 53.8672H16.6016C15.3906 53.8672 14.375 52.8516 14.375 51.6406V50.5469C14.375 49.3359 15.3906 48.3203 16.6016 48.3203H32.2266C38.3984 38.9453 48.9453 32.7734 61.0156 32.7734C65.3125 32.7734 69.4531 33.5547 73.2422 35V19.6094C73.2422 17.0703 71.0938 15 68.4375 15H65.4688V23.8672H7.73437V15H4.80469C2.14844 15 0 17.0703 0 19.6094V85.8984C0 88.4375 2.14844 90.5078 4.80469 90.5078H35.7422C31.9922 86.4844 29.2188 81.5234 27.7734 76.0547ZM14.375 39.4531C14.375 38.2422 15.3906 37.2266 16.6016 37.2266H35.4688C36.6797 37.2266 37.6953 38.2422 37.6953 39.4531V40.5469C37.6953 41.7578 36.6797 42.7734 35.4688 42.7734H16.6016C15.3906 42.7734 14.375 41.7578 14.375 40.5469V39.4531Z" fill="white"/>
<path d="M61.2656 35C43.4375 35 29 49.4375 29 67.2656C29 85.0938 43.4375 99.5312 61.2656 99.5312C79.0938 99.5312 93.5312 85.0938 93.5312 67.2656C93.5312 49.4375 79.0938 35 61.2656 35ZM61.2656 93.4883C46.7734 93.4883 35.043 81.7578 35.043 67.2656C35.043 52.7734 46.7734 41.043 61.2656 41.043C75.7578 41.043 87.4883 52.7734 87.4883 67.2656C87.4883 81.7578 75.7578 93.4883 61.2656 93.4883Z" fill="white"/>
<path d="M73.707 60.5117L67.8555 54.4961L61.1836 61.332L54.375 54.6875L48.3594 60.5391L55.332 67.3203L48.8242 73.9922L54.6758 80.0078L61.3203 73.1719L67.8828 79.5703L73.8984 73.7188L67.1992 67.1836L73.707 60.5117Z" fill="white"/>
</svg>
