<svg width="20" height="20" viewBox="0 0 20 20" fill="none" xmlns="http://www.w3.org/2000/svg">
<path d="M19.4494 3.04956C19.0936 2.69377 18.6277 2.49894 18.1194 2.49894H15.6205V0H14.3753V0.51673C14.3668 0.550614 14.3668 0.584498 14.3668 0.626853V2.49894H6.25159V0.626853V0H5.00635V0.626853V2.49894H1.88056C1.38077 2.49894 0.906396 2.69377 0.550614 3.04956C0.194833 3.40534 0 3.87124 0 4.3795V18.1194C0 18.6192 0.194833 19.0936 0.550614 19.4494C0.906396 19.8052 1.3723 20 1.88056 20H18.1194C18.6192 20 19.0936 19.8052 19.4494 19.4494C19.8052 19.0936 20 18.6277 20 18.1194V8.75053V7.49682V4.37103C20 3.87124 19.8052 3.39687 19.4494 3.04956ZM18.7463 18.1194C18.7463 18.2889 18.6785 18.4413 18.5599 18.5599C18.4413 18.6785 18.2804 18.7463 18.1194 18.7463H1.88056C1.71114 18.7463 1.55866 18.6785 1.44007 18.5599C1.32147 18.4413 1.25371 18.2804 1.25371 18.1194V8.75053H18.7463V18.1194ZM18.7463 4.80305V6.29394V7.49682H1.26218V6.277V4.78611V4.3795C1.26218 4.21008 1.32994 4.0576 1.44854 3.93901C1.56713 3.82042 1.72808 3.75265 1.88903 3.75265H5.00635V4.99788V5.62474H6.26006V4.99788V3.74418H14.3668V4.99788C14.3668 5.03177 14.3668 5.07412 14.3753 5.10801V5.62474H15.6205V3.75265H18.1194C18.2889 3.75265 18.4413 3.82042 18.5599 3.93901C18.6785 4.0576 18.7463 4.21855 18.7463 4.3795V4.80305ZM8.75053 12.4947V11.2495H7.50529H3.75265V12.4947H7.50529H8.75053ZM15.629 12.4947H16.2558V11.2495H15.629H15.0021H11.2579V12.4947H15.0021H15.629ZM8.13215 16.2474H8.759V14.9936H8.13215H7.50529H3.75265V16.2474H7.50529H8.13215ZM16.2474 16.2474V14.9936H15.0021H11.2579V16.2474H15.0021H16.2474Z" fill="white"/>
<path d="M19.4494 3.04956C19.0936 2.69377 18.6277 2.49894 18.1194 2.49894H15.6205V0H14.3753V0.51673C14.3668 0.550614 14.3668 0.584498 14.3668 0.626853V2.49894H6.25159V0.626853V0H5.00635V0.626853V2.49894H1.88056C1.38077 2.49894 0.906396 2.69377 0.550614 3.04956C0.194833 3.40534 0 3.87124 0 4.3795V18.1194C0 18.6192 0.194833 19.0936 0.550614 19.4494C0.906396 19.8052 1.3723 20 1.88056 20H18.1194C18.6192 20 19.0936 19.8052 19.4494 19.4494C19.8052 19.0936 20 18.6277 20 18.1194V8.75053V7.49682V4.37103C20 3.87124 19.8052 3.39687 19.4494 3.04956ZM18.7463 18.1194C18.7463 18.2889 18.6785 18.4413 18.5599 18.5599C18.4413 18.6785 18.2804 18.7463 18.1194 18.7463H1.88056C1.71114 18.7463 1.55866 18.6785 1.44007 18.5599C1.32147 18.4413 1.25371 18.2804 1.25371 18.1194V8.75053H18.7463V18.1194ZM18.7463 4.80305V6.29394V7.49682H1.26218V6.277V4.78611V4.3795C1.26218 4.21008 1.32994 4.0576 1.44854 3.93901C1.56713 3.82042 1.72808 3.75265 1.88903 3.75265H5.00635V4.99788V5.62474H6.26006V4.99788V3.74418H14.3668V4.99788C14.3668 5.03177 14.3668 5.07412 14.3753 5.10801V5.62474H15.6205V3.75265H18.1194C18.2889 3.75265 18.4413 3.82042 18.5599 3.93901C18.6785 4.0576 18.7463 4.21855 18.7463 4.3795V4.80305ZM8.75053 12.4947V11.2495H7.50529H3.75265V12.4947H7.50529H8.75053ZM15.629 12.4947H16.2558V11.2495H15.629H15.0021H11.2579V12.4947H15.0021H15.629ZM8.13215 16.2474H8.759V14.9936H8.13215H7.50529H3.75265V16.2474H7.50529H8.13215ZM16.2474 16.2474V14.9936H15.0021H11.2579V16.2474H15.0021H16.2474Z" fill="white"/>
</svg>
