<svg width="157" height="85" viewBox="0 0 157 85" fill="none" xmlns="http://www.w3.org/2000/svg">
<path d="M107.667 53.4376H113.136C113.136 50.4174 110.687 47.9688 107.667 47.9688V53.4376ZM145.255 17.1371C146.41 19.9275 149.609 21.2526 152.4 20.0967C155.19 18.9409 156.515 15.7419 155.359 12.9515L145.255 17.1371ZM107.667 31.5626V37.0313C110.687 37.0313 113.136 34.5828 113.136 31.5626H107.667ZM49.3335 53.4376V47.9688C46.3132 47.9688 43.8647 50.4174 43.8647 53.4376H49.3335ZM49.3335 31.5626H43.8647C43.8647 34.5828 46.3132 37.0313 49.3335 37.0313V31.5626ZM156.886 42.5001C156.886 39.4799 154.437 37.0313 151.417 37.0313C148.397 37.0313 145.948 39.4799 145.948 42.5001H156.886ZM129.542 73.4897C126.07 73.4897 123.739 73.4868 121.934 73.3635C120.179 73.2439 119.325 73.0288 118.762 72.7955L114.576 82.901C116.694 83.7782 118.878 84.118 121.19 84.2755C123.453 84.4301 126.219 84.4272 129.542 84.4272V73.4897ZM102.198 53.4376C102.198 56.799 102.197 60.3975 102.343 63.4972C102.416 65.0518 102.53 66.5728 102.717 67.94C102.892 69.227 103.176 70.7232 103.724 72.0488L113.83 67.8634C113.843 67.8955 113.803 67.8044 113.74 67.5309C113.68 67.2691 113.616 66.9162 113.553 66.4598C113.428 65.5396 113.334 64.3729 113.268 62.9824C113.137 60.1919 113.136 56.8712 113.136 53.4376H102.198ZM118.762 72.7955C116.529 71.8709 114.754 70.0961 113.83 67.8634L103.724 72.0488C105.759 76.962 109.663 80.8659 114.576 82.901L118.762 72.7955ZM145.948 57.0834C145.948 60.5557 145.945 62.8861 145.822 64.6908C145.702 66.4459 145.487 67.3005 145.255 67.8634L155.359 72.0488C156.237 69.9313 156.576 67.7475 156.734 65.4353C156.888 63.172 156.886 60.4062 156.886 57.0834H145.948ZM129.542 84.4272C132.865 84.4272 135.63 84.4301 137.894 84.2755C140.206 84.118 142.39 83.7782 144.507 82.901L140.322 72.7955C139.759 73.0288 138.904 73.2439 137.149 73.3635C135.345 73.4868 133.014 73.4897 129.542 73.4897V84.4272ZM145.255 67.8634C144.329 70.0961 142.555 71.8709 140.322 72.7955L144.507 82.901C149.42 80.8659 153.324 76.962 155.359 72.0488L145.255 67.8634ZM129.542 11.5105C133.014 11.5105 135.345 11.5135 137.149 11.6366C138.904 11.7564 139.759 11.9713 140.322 12.2043L144.507 2.09937C142.39 1.22233 140.206 0.882242 137.894 0.724451C135.63 0.570013 132.865 0.573002 129.542 0.573002V11.5105ZM140.322 12.2043C142.555 13.1294 144.329 14.9038 145.255 17.1371L155.359 12.9515C153.324 8.03814 149.42 4.13454 144.507 2.09937L140.322 12.2043ZM129.542 0.573002C126.219 0.573002 123.453 0.570013 121.19 0.724451C118.878 0.882242 116.694 1.22233 114.576 2.09937L118.762 12.2043C119.325 11.9713 120.179 11.7564 121.934 11.6366C123.739 11.5135 126.07 11.5105 129.542 11.5105V0.573002ZM113.136 31.5626C113.136 28.1289 113.137 24.8083 113.268 22.0177C113.334 20.627 113.428 19.4603 113.553 18.5402C113.616 18.0837 113.68 17.7308 113.74 17.4695C113.803 17.1957 113.843 17.1043 113.83 17.1371L103.724 12.9515C103.176 14.2766 102.892 15.773 102.717 17.0606C102.53 18.4271 102.416 19.9484 102.343 21.5029C102.197 24.6027 102.198 28.2011 102.198 31.5626H113.136ZM114.576 2.09937C109.663 4.13454 105.759 8.03814 103.724 12.9515L113.83 17.1371C114.754 14.9038 116.529 13.1294 118.762 12.2043L114.576 2.09937ZM11.0522 57.0834V27.9168H0.11475V57.0834H11.0522ZM27.4585 73.4897C23.9862 73.4897 21.6559 73.4868 19.8514 73.3635C18.0961 73.2439 17.2414 73.0288 16.6789 72.7955L12.4932 82.901C14.6107 83.7782 16.7947 84.118 19.1069 84.2755C21.37 84.4301 24.1358 84.4272 27.4585 84.4272V73.4897ZM0.11475 57.0834C0.11475 60.4062 0.11176 63.172 0.266198 65.4353C0.42399 67.7475 0.764073 69.9313 1.64111 72.0488L11.7461 67.8634C11.513 67.3005 11.2981 66.4459 11.1783 64.6908C11.0552 62.8861 11.0522 60.5557 11.0522 57.0834H0.11475ZM16.6789 72.7955C14.4455 71.8709 12.6711 70.0961 11.7461 67.8634L1.64111 72.0488C3.67629 76.962 7.57989 80.8659 12.4932 82.901L16.6789 72.7955ZM43.8647 53.4376C43.8647 56.8712 43.8635 60.1919 43.732 62.9824C43.6666 64.3729 43.5724 65.5396 43.4467 66.4598C43.3844 66.9162 43.32 67.2691 43.26 67.5309C43.197 67.8044 43.1574 67.8955 43.1709 67.8634L53.2759 72.0488C53.8248 70.7232 54.1079 69.227 54.2837 67.94C54.4703 66.5728 54.5842 65.0518 54.6574 63.4972C54.8035 60.3975 54.8022 56.799 54.8022 53.4376H43.8647ZM27.4585 84.4272C30.7812 84.4272 33.547 84.4301 35.8101 84.2755C38.1223 84.118 40.3063 83.7782 42.4238 82.901L38.2381 72.7955C37.6756 73.0288 36.8209 73.2439 35.0656 73.3635C33.2611 73.4868 30.9308 73.4897 27.4585 73.4897V84.4272ZM43.1709 67.8634C42.2459 70.0961 40.4715 71.8709 38.2381 72.7955L42.4238 82.901C47.3371 80.8659 51.2407 76.962 53.2759 72.0488L43.1709 67.8634ZM27.4585 11.5105C30.9308 11.5105 33.2611 11.5135 35.0656 11.6366C36.8209 11.7564 37.6756 11.9713 38.2381 12.2043L42.4238 2.09937C40.3063 1.22233 38.1223 0.882242 35.8101 0.724451C33.547 0.570013 30.7812 0.573002 27.4585 0.573002V11.5105ZM54.8022 31.5626C54.8022 28.2011 54.8035 24.6027 54.6574 21.5029C54.5842 19.9484 54.4703 18.4271 54.2837 17.0606C54.1079 15.773 53.8248 14.2766 53.2759 12.9515L43.1709 17.1371C43.1574 17.1043 43.197 17.1957 43.26 17.4695C43.32 17.7308 43.3844 18.0837 43.4467 18.5402C43.5724 19.4603 43.6666 20.627 43.732 22.0177C43.8635 24.8083 43.8647 28.1289 43.8647 31.5626H54.8022ZM38.2381 12.2043C40.4715 13.1294 42.2459 14.9038 43.1709 17.1371L53.2759 12.9515C51.2407 8.03814 47.3371 4.13454 42.4238 2.09937L38.2381 12.2043ZM27.4585 0.573002C24.1358 0.573002 21.37 0.570013 19.1069 0.724451C16.7947 0.882242 14.6107 1.22233 12.4932 2.09937L16.6789 12.2043C17.2414 11.9713 18.0961 11.7564 19.8514 11.6366C21.6559 11.5135 23.9862 11.5105 27.4585 11.5105V0.573002ZM11.0522 27.9168C11.0522 24.4445 11.0552 22.1141 11.1783 20.3097C11.2981 18.5543 11.513 17.6997 11.7461 17.1371L1.64111 12.9515C0.764073 15.0689 0.42399 17.253 0.266198 19.5652C0.11176 21.8282 0.11475 24.5941 0.11475 27.9168H11.0522ZM12.4932 2.09937C7.57989 4.13454 3.67629 8.03814 1.64111 12.9515L11.7461 17.1371C12.6711 14.9038 14.4455 13.1294 16.6789 12.2043L12.4932 2.09937ZM49.3335 37.0313H107.667V26.0938H49.3335V37.0313ZM107.667 47.9688H49.3335V58.9063H107.667V47.9688ZM145.948 42.5001V57.0834H156.886V42.5001H145.948Z" fill="#DFA100"/>
</svg>
