<svg width="20" height="20" viewBox="0 0 20 20" fill="none" xmlns="http://www.w3.org/2000/svg">
<path d="M8.22227 12.2464H11.7777C12.3081 12.2469 12.8165 12.4579 13.1915 12.8329C13.5664 13.208 13.7772 13.7165 13.7776 14.2469V17.5802C13.7776 17.9475 14.0774 18.2466 14.4447 18.2466H18.0001C18.1768 18.2463 18.3461 18.1759 18.471 18.051C18.5958 17.9262 18.6662 17.7569 18.6665 17.5802V8.85987C18.6667 8.76371 18.646 8.66866 18.6059 8.58126C18.5657 8.49387 18.5072 8.4162 18.4342 8.3536L10.434 1.49683C10.3136 1.39232 10.1595 1.33478 10 1.33478C9.84053 1.33478 9.68641 1.39232 9.56596 1.49683L1.5665 8.35292C1.49331 8.4154 1.43457 8.49302 1.39433 8.58044C1.3541 8.66785 1.33333 8.76296 1.33347 8.85919V17.5795C1.33383 17.7562 1.40415 17.9255 1.52905 18.0504C1.65394 18.1753 1.82324 18.2456 1.99986 18.2459H5.55601C5.73264 18.2456 5.90193 18.1753 6.02682 18.0504C6.15172 17.9255 6.22204 17.7562 6.2224 17.5795V14.2469C6.22294 13.7166 6.4338 13.2082 6.80871 12.8331C7.18362 12.4581 7.69197 12.2471 8.22227 12.2464ZM18.0001 19.5801H14.4447C13.9144 19.5796 13.4061 19.3687 13.0312 18.9938C12.6562 18.6188 12.4453 18.1105 12.4448 17.5802V14.2469C12.4448 14.0699 12.3745 13.9002 12.2495 13.775C12.1244 13.6498 11.9547 13.5793 11.7777 13.5791H8.22227C8.0454 13.5795 7.87591 13.65 7.75097 13.7752C7.62604 13.9004 7.55587 14.07 7.55587 14.2469V17.5802C7.55515 18.1104 7.34422 18.6187 6.96933 18.9936C6.59444 19.3684 6.08619 19.5794 5.55601 19.5801H1.99986C1.46969 19.5794 0.961434 19.3684 0.586543 18.9936C0.211652 18.6187 0.000721083 18.1104 0 17.5802V8.85987C0 8.27524 0.254838 7.72128 0.698419 7.34038L8.69855 0.484972C9.06012 0.172159 9.52224 0 10.0003 0C10.4784 0 10.9406 0.172159 11.3021 0.484972L19.3023 7.34175C19.5213 7.52956 19.697 7.76256 19.8175 8.02473C19.9379 8.2869 20.0002 8.57204 20 8.86055V17.5809C19.9995 18.1111 19.7886 18.6195 19.4137 18.9944C19.0387 19.3694 18.5304 19.5796 18.0001 19.5801Z" fill="white"/>
</svg>
