<svg width="119" height="118" viewBox="0 0 119 118" fill="none" xmlns="http://www.w3.org/2000/svg">
<path d="M54.7812 0.406204C35.875 2.01558 19.2031 12.1875 9.3125 28.1562C4.75 35.5312 1.92188 43.7968 0.84375 52.9843C0.578125 55.25 0.578125 62.75 0.84375 65.0156C1.73438 72.5625 3.70312 79.2187 6.89062 85.4843C15.1875 101.797 30.2656 113.187 48.2969 116.719C50.7812 117.203 54.6094 117.609 57.6719 117.703C71.75 118.109 85.0938 113.594 96.375 104.578C98.2656 103.078 102.844 98.5625 104.438 96.625C111.953 87.5312 116.688 76.2656 117.734 65.0156C118.047 61.6562 118.047 61.5 117.844 61.5C117.734 61.5 114.203 62.2031 110 63.0468C98.3594 65.4218 97.6875 65.5625 97.5781 65.6875C97.5156 65.75 97.3281 66.5156 97.1406 67.3906C94.9062 77.9843 87.6562 87.6406 77.8594 93.0468C76.8594 93.5937 76.9375 93.6406 76.6406 92.2031C76.4062 91 76.4219 90.375 76.7344 89.7656C76.875 89.5 77.1875 87.9062 77.4375 86.2031C77.7031 84.4218 78.2188 81.8281 78.6719 80.0156C79.4531 76.9531 79.4688 76.8906 80.1562 76.2031C80.5312 75.7968 81.3438 74.7812 81.9688 73.9218C82.5938 73.0625 83.5 71.875 83.9844 71.2812L84.8594 70.2031L84.9688 67.7656C85.0156 66.4218 85.1562 65.0468 85.2656 64.7031C85.5312 63.8906 85.5312 60.1406 85.25 59.0156C85 57.9531 84.7031 57.4375 83.3438 55.625C82.375 54.3281 82.25 54.0937 82.125 53.1875C81.9219 51.75 81.4531 50.375 80.875 49.4531C80.1875 48.4062 78.5469 47.0312 77.2031 46.3906C76.2656 45.9531 75.9062 45.875 74.8594 45.8437C74.0469 45.8281 73.3438 45.9218 72.8594 46.0781C71.875 46.4218 71.3594 46.4062 70.4531 46.0156C69.5625 45.625 68.0781 45.5625 64.3125 45.7812C62.1719 45.9062 61.8438 45.8906 61.625 45.6718C61.2031 45.2343 60.8281 41.7656 61.1875 41.4062C61.3594 41.2343 61.6562 38.8281 61.6562 37.5937C61.6562 36.7656 61.5625 36.4843 61 35.7031C60.8281 35.4531 60.6875 34.7968 60.5938 33.8125C60.4688 32.4218 60.4062 32.2343 59.8594 31.4687C58.1406 29.0781 57.2812 28.4375 55.0781 27.9062C53.5 27.5312 52.6562 27.5156 51.4219 27.8437C49.5156 28.3281 46.875 30.4687 46.0469 32.1718C45.2812 33.7343 45.2969 35.1718 46.1094 38.1875C46.3281 38.9843 46.5 39.6875 46.5 39.7343C46.5 39.7812 46.3281 39.7656 46.125 39.7187C45.4844 39.5625 45.3594 39.9218 45.6406 41.1093C45.9062 42.2812 46.5 43.2343 47.4688 44.0781C48.0156 44.5312 48.25 44.6406 48.6875 44.5937C49.2031 44.5468 49.25 44.5781 49.8906 45.7187C51.0781 47.8593 51.2344 48.7812 50.6094 49.9843C50.4844 50.2343 49.7031 51.1562 48.8594 52.0312C48.0312 52.8906 47.0938 53.9375 46.7656 54.3281L46.1875 55.0468L44.4219 55.1406C41.2031 55.2812 38.9219 56.3593 36.4688 58.8593L35.125 60.25H34.0781C32.3906 60.25 30.9375 60.9375 29.5156 62.3906C28.3281 63.625 27.125 64.5312 26.9375 64.3437C26.7812 64.1875 26.1875 62.4531 26.1875 62.1718C26.1875 61.7343 25.125 59.6718 24.4375 58.7656C23.125 57.0312 22 54.125 21.8594 52.1093C21.7656 50.8125 21.7812 50.7343 22.1406 50.4687C22.3438 50.2968 22.7969 49.875 23.1406 49.5156L23.7812 48.8593L24.2812 49.1875C24.7188 49.4687 24.8438 49.4843 25.25 49.3125C25.8906 49.0468 26.5312 48.2656 26.4219 47.8906C26.3438 47.6718 26.4531 47.5156 26.7812 47.3281C27.6719 46.8125 28.1719 45.5156 28.2344 43.625C28.2656 42.3281 28.25 42.2968 26.3594 41.7031C25.625 41.4843 25 41.2656 24.9688 41.25C24.8594 41.1718 25.9062 39.2812 26.9219 37.75C37.7656 21.3593 58.8438 15.6093 76.4375 24.25C83.4531 27.7031 89.4375 33.4218 93.2656 40.3281C94.625 42.7812 95.5938 45.1406 96.7344 48.7968C96.7812 48.9218 97.3906 48.8437 98.875 48.5312C105.031 47.2031 116.266 44.7656 116.297 44.7343C116.312 44.7031 116.047 43.7031 115.703 42.5156C111.766 28.9062 102.594 16.7812 90.5625 9.26558C83.1719 4.64058 75.3906 1.85933 66.6562 0.718704C63.875 0.343704 57.4375 0.187454 54.7812 0.406204ZM42.0625 71.9062C42.7031 73.1562 44.0156 74.1562 45.6875 74.7031C46.5938 74.9843 46.4844 74.8906 49.9219 79.0781C51.5 80.9843 51.625 81.3437 51.4219 83.1093C51.3594 83.6406 51.2969 84.5468 51.2812 85.125C51.2656 86.0781 51.2344 86.1875 50.7969 86.5156C50.1094 87.0625 49.8594 87.3906 49.2188 88.6406L48.6406 89.7812L48.9219 92.1093L49.2188 94.4531L48.7812 95.0781C48.0312 96.1562 48.0938 96.1562 46.0625 95.4218C36.9531 92.125 29.125 85.1562 24.7188 76.4531C24.2031 75.4375 23.8281 74.5937 23.875 74.5468C23.9219 74.5 24.375 74.5781 24.875 74.7031C25.375 74.8437 26.7188 75.0156 27.8281 75.0937C28.9531 75.1718 30.3125 75.3125 30.875 75.4062C32.6094 75.7187 34.8438 75.4375 36.9844 74.6406C38.0156 74.25 39.7031 72.8906 40.5156 71.8125C40.8438 71.375 41.2188 71.0312 41.3438 71.0312C41.5 71.0312 41.7969 71.3906 42.0625 71.9062Z" fill="#DFA100"/>
<path d="M111.109 47.8907C108.281 48.5625 104.016 49.5469 101.656 50.0938C99.2969 50.6407 97.3438 51.0938 97.3125 51.1094C97.25 51.1563 97.7032 53.7032 97.7969 53.7969C97.8438 53.8438 98.3282 53.7657 98.875 53.625C100.859 53.1407 112.578 50.2657 114.906 49.7032C116.891 49.2188 117.281 49.0782 117.219 48.8594C117.172 48.7188 117.063 48.1719 116.953 47.625C116.813 46.9063 116.703 46.6563 116.516 46.6719C116.375 46.6719 113.953 47.2344 111.109 47.8907Z" fill="#DFA100"/>
<path d="M107.515 53.3281C102.281 54.5781 97.9529 55.625 97.9216 55.6562C97.8904 55.6875 97.9216 56.0469 97.9998 56.4687L98.1404 57.2188L107.89 54.9844C113.25 53.7656 117.656 52.7344 117.672 52.7187C117.703 52.6875 117.672 52.2969 117.64 51.8437C117.578 51.2187 117.5 51.0312 117.297 51.0469C117.156 51.0625 112.765 52.0781 107.515 53.3281Z" fill="#DFA100"/>
<path d="M115.797 55.5625C110.688 56.7812 99.6094 59.3437 98.9063 59.5L98.0938 59.6562L97.9844 61.375C97.9219 62.3125 97.9062 63.1093 97.9375 63.1562C97.9688 63.1875 102.5 62.25 108 61.0625L117.984 58.9218L118.031 57.9843C118.094 56.9062 117.938 55.0937 117.781 55.1093C117.719 55.125 116.828 55.3281 115.797 55.5625Z" fill="#DFA100"/>
</svg>
