<svg width="104" height="140" viewBox="0 0 104 140" fill="none" xmlns="http://www.w3.org/2000/svg">
<path d="M51.9997 21.2307C35.1738 21.2307 21.4844 34.9196 21.4844 51.7455C21.4844 68.5713 35.1738 82.2602 51.9997 82.2602C68.8255 82.2602 82.515 68.5713 82.515 51.7455C82.515 34.9196 68.8255 21.2307 51.9997 21.2307ZM51.9997 74.0519C39.6995 74.0519 29.6921 64.045 29.6921 51.7449C29.6921 39.4448 39.6995 29.4385 51.9997 29.4385C64.2998 29.4385 74.3072 39.4453 74.3072 51.7455C74.3072 64.0456 64.3003 74.0519 51.9997 74.0519Z" fill="#DFA100"/>
<path d="M51.9998 0C23.4675 0 0.254883 23.2126 0.254883 51.7449C0.254883 68.1998 14.0548 92.7152 22.2806 105.863C27.6928 114.514 33.5088 122.747 38.6567 129.045C46.9197 139.154 49.8773 139.999 52.0003 139.999C54.1551 139.999 56.9474 139.153 65.1847 129.039C70.3441 122.703 76.1628 114.475 81.5695 105.87C89.8517 92.6895 103.745 68.1303 103.745 51.7443C103.745 23.2126 80.5326 0 51.9998 0ZM75.8794 99.4795C65.2662 116.706 55.5225 128.347 51.9511 131.319C48.361 128.439 38.7755 117.075 28.014 99.5337C15.5891 79.2797 8.46317 61.8612 8.46317 51.7449C8.46262 27.7383 27.9932 8.20774 51.9998 8.20774C76.0063 8.20774 95.5369 27.7383 95.5369 51.7449C95.5375 61.8032 88.3721 79.2014 75.8794 99.4795Z" fill="#DFA100"/>
</svg>
