<svg width="26" height="29" viewBox="0 0 26 29" fill="none" xmlns="http://www.w3.org/2000/svg">
<path d="M2.96924 15.7539C2.96924 12.0273 4.99658 8.78125 7.99658 7.04688V4.23438C3.55517 6.17969 0.449707 10.6094 0.449707 15.7656C0.449707 22.7031 6.08643 28.3281 13.0239 28.3281C19.9614 28.3281 25.5981 22.7031 25.5981 15.7539C25.5981 10.5977 22.4927 6.16797 18.0513 4.22266V7.03516C21.0513 8.76953 23.0786 12.0273 23.0786 15.7422C23.0786 21.2969 18.5786 25.7969 13.0239 25.7969C7.46924 25.8086 2.96924 21.3086 2.96924 15.7539ZM13.0239 0.671875C11.6411 0.671875 10.5044 1.79688 10.5044 3.19141V13.2461C10.5044 14.6289 11.6294 15.7656 13.0239 15.7656C14.4185 15.7656 15.5435 14.6406 15.5435 13.2461V3.19141C15.5435 1.79688 14.4067 0.671875 13.0239 0.671875Z" fill="white"/>
</svg>
