<svg width="20" height="21" viewBox="0 0 20 21" fill="none" xmlns="http://www.w3.org/2000/svg">
<path d="M14.2958 6.66914C14.2958 6.14374 13.8721 5.72004 13.3467 5.72004H4.76246C4.23706 5.72004 3.81336 6.14374 3.81336 6.66914C3.81336 7.19453 4.23706 7.61824 4.76246 7.61824H13.3383C13.8637 7.62671 14.2958 7.19453 14.2958 6.66914ZM4.76246 9.52492C4.23706 9.52492 3.81336 9.94862 3.81336 10.474V10.4825C3.81336 11.0079 4.23706 11.4316 4.76246 11.4316H10.4825C11.0079 11.4316 11.4316 11.0079 11.4316 10.4825V10.474C11.4316 9.94862 11.0079 9.52492 10.4825 9.52492H4.76246ZM5.23701 19.0583H4.28791C2.97442 19.0583 1.90668 17.9906 1.90668 16.6771V4.28791C1.90668 2.97442 2.97442 1.90668 4.28791 1.90668H13.8128C15.1263 1.90668 16.1941 2.97442 16.1941 4.28791V6.66914C16.1941 7.19453 16.6178 7.61824 17.1432 7.61824C17.6686 7.61824 18.0923 7.19453 18.0923 6.66914V3.81336C18.0923 1.71177 16.389 0 14.2789 0H3.81336C1.71177 0 0 1.7033 0 3.81336V17.1516C0 19.2532 1.7033 20.965 3.81336 20.965H5.24548C5.77088 20.965 6.19459 20.5413 6.19459 20.0159C6.19459 19.482 5.76241 19.0583 5.23701 19.0583ZM19.1685 10.3554C18.0668 9.24527 16.2788 9.24527 15.1772 10.3554L9.008 16.4483L9.01647 16.4568C8.81309 16.6262 8.6775 16.8889 8.6775 17.1771V20.0159C8.6775 20.5413 9.10121 20.965 9.61813 20.965H12.44C12.7875 20.965 13.0841 20.7786 13.2451 20.4989L19.16 14.3721C20.2786 13.262 20.2786 11.457 19.1685 10.3554ZM17.838 13.0247L12.0163 19.0583H10.5503V17.5753L16.4991 11.6858C16.8635 11.313 17.4652 11.313 17.8296 11.6858C18.2024 12.0587 18.2024 12.6603 17.838 13.0247ZM7.62671 13.3383H4.76246C4.23706 13.3383 3.81336 13.762 3.81336 14.2874C3.81336 14.8128 4.23706 15.2365 4.76246 15.2365H7.62671C8.15211 15.2365 8.57582 14.8128 8.57582 14.2874C8.57582 13.7705 8.15211 13.3383 7.62671 13.3383Z" fill="white"/>
</svg>
