<svg width="19" height="25" viewBox="0 0 19 25" fill="none" xmlns="http://www.w3.org/2000/svg">
<path d="M18.7771 20.7227C18.5232 21.1328 18.0545 21.3672 17.4099 21.3965H17.3806H12.4295C12.2732 22.8711 11.0135 24.0234 9.49002 24.0234C7.96658 24.0234 6.71658 22.8711 6.56033 21.3965H1.60916H1.59939C0.954861 21.3672 0.476346 21.1328 0.222439 20.7129C-0.031467 20.3027 -0.0217014 19.7754 0.251736 19.1504L0.271267 19.1211C2.05838 15.918 2.1365 11.1816 2.14627 10.9863C2.14627 8.125 3.81619 5.54688 6.41385 4.35547V3.17383C6.41385 1.96289 7.40994 0.976562 8.63064 0.976562H10.6814C11.9021 0.976562 12.8982 1.96289 12.8982 3.17383V4.51172C14.0213 5.09766 14.9783 5.95703 15.6717 7.02148C16.4334 8.17383 16.8338 9.52148 16.8533 10.8984C16.8533 10.9277 16.8631 10.957 16.8631 10.9961C16.8631 11.0449 16.9021 15.8398 18.7283 19.1113C18.7381 19.1309 18.7478 19.1504 18.7576 19.1797C19.0213 19.7852 19.031 20.3125 18.7771 20.7227ZM4.34353 17.6172L4.31424 17.6465C4.21658 17.7539 4.15799 17.9004 4.15799 18.0371C4.15799 18.1934 4.21658 18.3398 4.324 18.4473L4.34353 18.4668C4.45095 18.5645 4.59744 18.623 4.74392 18.623C4.90017 18.623 5.04666 18.5645 5.15408 18.457C5.2615 18.3496 5.3201 18.2031 5.3201 18.0469C5.3201 17.9004 5.2615 17.7637 5.16385 17.6562L5.14431 17.6367L5.12478 17.6172C4.9197 17.4121 4.57791 17.4121 4.34353 17.6172ZM8.16189 7.30469C8.074 7.17773 7.94705 7.08008 7.7908 7.05078C7.64431 7.02148 7.4783 7.04102 7.35135 7.11914C7.23416 7.1875 5.24197 8.4668 5.12478 11.582V11.6016V11.6113C5.12478 11.6309 5.19314 13.5449 4.74392 15.7227C4.68533 16.0352 4.88064 16.3379 5.19314 16.4062C5.2322 16.416 5.27127 16.416 5.3201 16.416C5.59353 16.416 5.83767 16.2207 5.89627 15.9473C6.31619 13.9062 6.31619 11.9727 6.29666 11.5918C6.38455 9.15039 7.90799 8.13477 7.97635 8.08594C8.24978 7.92969 8.33767 7.56836 8.16189 7.30469Z" fill="white"/>
</svg>
