<svg width="20" height="20" viewBox="0 0 20 20" fill="none" xmlns="http://www.w3.org/2000/svg">
<path d="M9.99992 6.41166e-06C12.3144 -0.000655159 14.5574 0.801251 16.3469 2.26908C18.1363 3.7369 19.3614 5.77981 19.8134 8.04969C20.2654 10.3196 19.9163 12.6759 18.8257 14.7173C17.735 16.7586 15.9702 18.3586 13.8321 19.2446C11.6939 20.1305 9.31469 20.2477 7.09985 19.576C4.88501 18.9044 2.97159 17.4855 1.68566 15.5612C0.399729 13.6369 -0.179144 11.3262 0.0476847 9.02288C0.274514 6.71958 1.29301 4.56621 2.92961 2.92969C3.85703 1.99969 4.95907 1.26211 6.17243 0.759343C7.38578 0.256572 8.68653 -0.00148311 9.99992 6.41166e-06ZM14.4205 9.24805V10.752C14.4205 10.9246 14.3519 11.0902 14.2298 11.2123C14.1077 11.3344 13.9421 11.403 13.7695 11.403H11.3932V13.7728C11.3932 13.9455 11.3246 14.1111 11.2025 14.2331C11.0804 14.3552 10.9148 14.4238 10.7421 14.4238H9.24797C9.0753 14.4238 8.90971 14.3552 8.78761 14.2331C8.66552 14.1111 8.59693 13.9455 8.59693 13.7728V11.3932H6.22714C6.05447 11.3932 5.88887 11.3246 5.76678 11.2026C5.64469 11.0805 5.5761 10.9149 5.5761 10.7422V9.24805C5.5761 9.07539 5.64469 8.90979 5.76678 8.7877C5.88887 8.6656 6.05447 8.59701 6.22714 8.59701H8.60018V6.22722C8.60018 6.05455 8.66878 5.88896 8.79087 5.76686C8.91296 5.64477 9.07856 5.57618 9.25123 5.57618H10.7551C10.9278 5.57618 11.0934 5.64477 11.2155 5.76686C11.3376 5.88896 11.4062 6.05455 11.4062 6.22722V8.60027H13.7727C13.9454 8.60027 14.111 8.66886 14.2331 8.79095C14.3552 8.91305 14.4238 9.07864 14.4238 9.25131L14.4205 9.24805ZM15.8577 4.14226C14.5023 2.78585 12.7186 1.94138 10.8104 1.75273C8.90218 1.56409 6.98761 2.04296 5.39291 3.10773C3.79822 4.1725 2.62207 5.75729 2.06488 7.59205C1.5077 9.42682 1.60397 11.398 2.33727 13.1698C3.07057 14.9415 4.39554 16.4042 6.0864 17.3085C7.77726 18.2128 9.72938 18.5028 11.6101 18.1292C13.4909 17.7555 15.1838 16.7412 16.4006 15.2592C17.6173 13.7772 18.2825 11.9191 18.2828 10.0016C18.2842 8.91341 18.0707 7.83561 17.6546 6.83011C17.2384 5.8246 16.6277 4.91118 15.8577 4.14226Z" fill="white"/>
</svg>
