<svg width="25" height="25" viewBox="0 0 25 25" fill="none" xmlns="http://www.w3.org/2000/svg">
<path d="M11.5432 0.0135971C9.77464 0.193628 8.45088 0.553691 7.00004 1.27382C5.72923 1.89863 4.81849 2.54463 3.78066 3.55068C2.71106 4.58851 1.93798 5.65811 1.27081 6.99246C0.656585 8.25268 0.275342 9.49172 0.0635405 10.9531C-0.0211802 11.525 -0.0211802 13.4524 0.0635405 14.0349C0.413013 16.46 1.34494 18.631 2.82755 20.4313C6.27992 24.6249 11.9986 26.1181 17.0394 24.1484C20.2694 22.8882 22.8852 20.2618 24.156 17.0213C24.6749 15.6869 24.9396 14.4055 24.9926 12.9123C25.1091 9.53408 23.8489 6.27233 21.4873 3.82603C20.4071 2.71407 19.3587 1.95158 17.9925 1.28441C16.7641 0.680772 15.631 0.320709 14.2542 0.108908C13.7671 0.0347773 11.9668 -0.0287632 11.5432 0.0135971ZM14.1378 0.881983C16.6794 1.26323 19.0092 2.42813 20.7883 4.21786C22.631 6.07112 23.7747 8.37976 24.1454 11.0273C24.2407 11.705 24.2195 13.4524 24.1242 14.1302C23.8171 16.0999 23.0546 17.9426 21.9109 19.4782C21.7203 19.7323 21.4661 20.05 21.339 20.1877L21.1166 20.4313L21.0637 20.2724C20.7989 19.5311 20.2588 18.6945 19.6128 18.0167C18.2679 16.5977 16.4993 15.7399 14.2437 15.401C13.4176 15.2739 11.5961 15.2739 10.7701 15.401C8.6415 15.7187 7.01063 16.4812 5.67628 17.7414C5.40094 18.0061 5.03029 18.4192 4.85026 18.6521C4.55373 19.044 4.08777 19.8806 3.96069 20.2724L3.89715 20.4419L3.67476 20.1983C3.54768 20.0606 3.29351 19.7429 3.10289 19.4888C0.826026 16.46 0.180031 12.4993 1.33435 8.90926C2.49926 5.30864 5.31622 2.49168 8.92744 1.32677C9.75346 1.06201 10.4418 0.924344 11.6173 0.786673C11.9774 0.754903 13.6612 0.807853 14.1378 0.881983Z" fill="white"/>
<path d="M11.6171 4.56738C11.1088 4.67328 10.6322 4.8639 10.1769 5.12866C9.70031 5.404 8.9696 6.1453 8.67308 6.65363C7.80469 8.13624 7.84705 9.95773 8.81075 11.398C9.64736 12.6688 11.1512 13.4313 12.6655 13.3571C13.3539 13.3254 13.8516 13.1877 14.4764 12.8912C15.3448 12.457 16.0332 11.7792 16.4568 10.9108C16.8168 10.1801 16.9016 9.78829 16.9016 8.93049C16.9016 8.09388 16.8168 7.70204 16.478 7.0031C15.599 5.17102 13.5763 4.16496 11.6171 4.56738Z" fill="white"/>
</svg>
