<svg width="17" height="17" viewBox="0 0 17 17" fill="none" xmlns="http://www.w3.org/2000/svg">
<path d="M6.58962 0.731427C5.37966 0.854474 4.12869 1.37401 3.15798 2.13963C2.87087 2.36522 2.35134 2.88475 2.12576 3.17186C1.05935 4.52537 0.546654 6.24803 0.710716 7.916C1.01833 10.9853 3.37673 13.4258 6.42556 13.8222C6.63064 13.8496 7.01345 13.8701 7.28005 13.8701C8.74294 13.8701 10.0349 13.4326 11.3201 12.4961C11.3543 12.4687 11.8601 12.9609 13.4802 14.581C14.9568 16.0576 15.6336 16.7138 15.7156 16.748C15.784 16.7754 15.9138 16.7959 16.0027 16.7959C16.5154 16.7959 16.9119 16.29 16.782 15.7978C16.741 15.6543 16.5974 15.5039 14.5945 13.501L12.4549 11.3476L12.5779 11.1836C13.0427 10.5615 13.4392 9.72068 13.6443 8.92088C13.9588 7.67674 13.9177 6.40525 13.5144 5.19529C12.5506 2.28319 9.65896 0.410138 6.58962 0.731427ZM7.72439 2.19432C8.05251 2.20799 8.55837 2.31053 8.90701 2.43358C9.24197 2.54979 9.81618 2.8369 10.1511 3.05565C10.5955 3.34959 11.2107 3.97166 11.5183 4.42967C12.4138 5.78319 12.6326 7.38279 12.1336 8.91404C12.0105 9.28318 11.6756 9.93943 11.4363 10.2881C11.1629 10.6709 10.6365 11.1904 10.2605 11.4638C8.49001 12.7148 6.21365 12.749 4.40896 11.5459C3.96462 11.2451 3.32888 10.6162 3.04861 10.1924C2.59744 9.50877 2.30349 8.76365 2.19411 7.98436C2.13943 7.59471 2.1531 6.84959 2.22146 6.43943C2.62478 4.10838 4.57986 2.33787 6.92458 2.18748C7.10915 2.17381 7.28689 2.16697 7.33474 2.17381C7.37576 2.17381 7.55349 2.18065 7.72439 2.19432Z" fill="black"/>
</svg>
