<svg width="20" height="19" viewBox="0 0 20 19" fill="none" xmlns="http://www.w3.org/2000/svg">
<path d="M13 18.8814C12.6356 18.8814 12.2797 18.7288 12.0593 18.4831C11.7458 18.1441 10.7627 17.2542 9.95763 17.2542C9.15254 17.2542 8.15254 18.1441 7.86441 18.4576C7.63559 18.7034 7.28814 18.8559 6.92373 18.8559C6.75424 18.8559 6.59322 18.822 6.44068 18.7542L6.41525 18.7458L3.9661 17.3729L3.94068 17.3559C3.49153 17.0424 3.32203 16.4322 3.54237 15.9322C3.54237 15.9322 3.77119 15.4068 3.77119 14.9407C3.77119 13.5085 2.60169 12.339 1.16949 12.339H1.08475C1.07627 12.339 1.07627 12.339 1.0678 12.339C0.661017 12.339 0.322034 11.9746 0.211864 11.4068C0.20339 11.3644 0 10.2881 0 9.44915C0 8.61017 0.20339 7.5339 0.211864 7.49153C0.322034 6.92373 0.661017 6.55085 1.07627 6.55932H1.16949C2.60169 6.55932 3.77119 5.38983 3.77119 3.95763C3.77119 3.48305 3.55085 2.9661 3.54237 2.9661C3.32203 2.4661 3.49153 1.85593 3.94068 1.54237L3.9661 1.52542L6.55932 0.101695L6.58475 0.0932204C6.72881 0.0338983 6.88983 0 7.05932 0C7.41525 0 7.77119 0.144068 8 0.389831C8.30509 0.711864 9.27119 1.54237 10.0593 1.54237C10.8305 1.54237 11.7966 0.720339 12.1017 0.40678C12.3305 0.169491 12.678 0.0254237 13.0339 0.0254237C13.2034 0.0254237 13.3644 0.059322 13.5169 0.127119L13.5424 0.135593L16.0424 1.52542L16.0678 1.54237C16.517 1.85593 16.6864 2.4661 16.4661 2.9661C16.4661 2.9661 16.2373 3.49153 16.2373 3.95763C16.2373 5.38983 17.4068 6.55932 18.839 6.55932H18.9237C19.339 6.55085 19.6864 6.91525 19.7881 7.49153C19.7966 7.5339 20 8.61017 20 9.44915C20 10.2881 19.7966 11.3644 19.7881 11.4068C19.678 11.9746 19.339 12.3475 18.9237 12.339H18.839C17.4068 12.339 16.2373 13.5085 16.2373 14.9407C16.2373 15.4153 16.4576 15.9322 16.4661 15.9407C16.6864 16.4407 16.517 17.0508 16.0678 17.3644L16.0424 17.3814L13.5 18.7881L13.4746 18.7966C13.322 18.8475 13.1695 18.8814 13 18.8814ZM12.7627 17.2203C12.7712 17.2288 12.8051 17.2373 12.839 17.2373L15.0847 16C15.0339 15.8729 14.7797 15.2627 14.7797 14.6271C14.7797 12.7203 16.2797 11.161 18.161 11.0678C18.1864 10.9153 18.3305 10.0763 18.3305 9.44915C18.3305 8.82203 18.1864 7.97458 18.161 7.83051C16.2797 7.72881 14.7797 6.16949 14.7797 4.27119C14.7797 3.63559 15.0254 3.02542 15.0847 2.8983L12.8814 1.66949H12.8729C12.839 1.66949 12.7966 1.68644 12.7881 1.69492C12.7542 1.73729 12.4322 2.05932 11.9746 2.38136C11.2966 2.85593 10.6525 3.10169 10.0678 3.10169C9.47458 3.10169 8.82203 2.85593 8.14407 2.36441C7.68644 2.0339 7.36441 1.70339 7.32203 1.66949C7.31356 1.66102 7.27119 1.64407 7.23729 1.64407H7.22881L4.94068 2.8983C4.99153 3.02542 5.24576 3.63559 5.24576 4.27119C5.24576 6.17797 3.74576 7.73729 1.86441 7.83051C1.83898 7.98305 1.69492 8.82203 1.69492 9.44915C1.69492 10.0763 1.83898 10.9237 1.86441 11.0678C3.74576 11.1695 5.23729 12.7288 5.23729 14.6271C5.23729 15.2627 4.99153 15.8814 4.9322 16L7.09322 17.2119C7.12712 17.2119 7.15254 17.2034 7.16102 17.1949C7.20339 17.1525 7.52542 16.8051 7.99153 16.4661C8.68644 15.9576 9.34746 15.7034 9.94915 15.7034C10.5593 15.7034 11.2203 15.9661 11.9237 16.4831C12.3898 16.8305 12.7203 17.178 12.7627 17.2203Z" fill="white"/>
<path d="M9.9578 12.8983C8.05102 12.8983 6.4917 11.3474 6.4917 9.43217C6.4917 7.51691 8.04255 5.96606 9.9578 5.96606C11.8731 5.96606 13.4239 7.51691 13.4239 9.43217C13.4239 11.3474 11.8646 12.8983 9.9578 12.8983ZM9.9578 7.15251C8.69509 7.15251 7.66967 8.17793 7.66967 9.44064C7.66967 10.7034 8.69509 11.7288 9.9578 11.7288C11.2205 11.7288 12.2459 10.7034 12.2459 9.44064C12.2459 8.17793 11.2205 7.15251 9.9578 7.15251Z" fill="white"/>
</svg>
