<svg width="30" height="30" viewBox="0 0 30 30" fill="none" xmlns="http://www.w3.org/2000/svg">
<path d="M27.9059 14.5422C27.7294 14.277 23.4752 8.04517 14.9539 8.04517C6.43353 8.04517 2.17926 14.277 2.00192 14.5422C1.91247 14.6765 1.86475 14.8343 1.86475 14.9958C1.86475 15.1572 1.91247 15.315 2.00192 15.4493C2.17926 15.7144 6.43353 21.9463 14.9539 21.9463C23.4751 21.9463 27.7294 15.7144 27.9059 15.4493C27.9958 15.3151 28.0438 15.1573 28.0438 14.9958C28.0438 14.8343 27.9958 14.6764 27.9059 14.5422ZM14.9539 20.3109C8.6114 20.3109 4.82372 16.3541 3.71002 14.9941C4.81969 13.6314 8.58745 9.68063 14.9539 9.68063C21.2973 9.68063 25.0841 13.6374 26.1978 14.9973C25.0882 16.36 21.3205 20.3109 14.9539 20.3109Z" fill="white"/>
<path d="M14.9539 11.3162C12.9239 11.3162 11.2725 12.9668 11.2725 14.9959C11.2725 17.0251 12.9239 18.6756 14.9539 18.6756C16.9839 18.6756 18.6353 17.0251 18.6353 14.9959C18.6353 12.9668 16.984 11.3162 14.9539 11.3162ZM14.9539 17.0401C13.8266 17.0401 12.9087 16.1229 12.9087 14.9959C12.9087 13.8687 13.8266 12.9516 14.9539 12.9516C16.082 12.9516 16.9991 13.8687 16.9991 14.9959C16.9991 16.1229 16.082 17.0401 14.9539 17.0401Z" fill="white"/>
</svg>
