<svg width="27" height="26" viewBox="0 0 27 26" fill="none" xmlns="http://www.w3.org/2000/svg">
<path d="M19.125 9.10231C20.057 9.10231 20.8125 8.38313 20.8125 7.49598C20.8125 6.60883 20.057 5.88965 19.125 5.88965C18.193 5.88965 17.4375 6.60883 17.4375 7.49598C17.4375 8.38313 18.193 9.10231 19.125 9.10231Z" fill="#DFA100"/>
<path d="M18 3.21289C21.105 3.21289 23.625 5.61168 23.625 8.56732V17.1344C23.625 20.0901 21.105 22.4888 18 22.4888H9C5.895 22.4888 3.375 20.0901 3.375 17.1344V8.56732C3.375 5.61168 5.895 3.21289 9 3.21289H13.5H18Z" stroke="#DFA100" stroke-width="2" stroke-linecap="round" stroke-linejoin="round"/>
<path d="M13.5 8.56738C15.9863 8.56738 18 10.4843 18 12.8509C18 15.2176 15.9863 17.1345 13.5 17.1345C11.0137 17.1345 9 15.2176 9 12.8509C9 10.4843 11.0137 8.56738 13.5 8.56738Z" stroke="#DFA100" stroke-width="2" stroke-linecap="round" stroke-linejoin="round"/>
</svg>
