<svg width="27" height="27" viewBox="0 0 27 27" fill="none" xmlns="http://www.w3.org/2000/svg">
<path d="M22.6798 7.69503C19.4398 2.70003 12.8248 1.21503 7.69482 4.32003C2.69982 7.42503 1.07982 14.175 4.31982 19.17L4.58982 19.575L3.50982 23.625L7.55982 22.545L7.96482 22.815C9.71982 23.76 11.6098 24.3 13.4998 24.3C15.5248 24.3 17.5498 23.76 19.3048 22.68C24.2998 19.44 25.7848 12.825 22.6798 7.69503ZM19.8448 18.09C19.3048 18.9 18.6298 19.44 17.6848 19.575C17.1448 19.575 16.4698 19.845 13.7698 18.765C11.4748 17.685 9.58482 15.93 8.23482 13.905C7.42482 12.96 7.01982 11.745 6.88482 10.53C6.88482 9.45003 7.28982 8.50503 7.96482 7.83003C8.23482 7.56003 8.50482 7.42503 8.77482 7.42503H9.44982C9.71982 7.42503 9.98982 7.42503 10.1248 7.96503C10.3948 8.64003 11.0698 10.26 11.0698 10.395C11.2048 10.53 11.2048 10.8 11.0698 10.935C11.2048 11.205 11.0698 11.475 10.9348 11.61C10.7998 11.745 10.6648 12.015 10.5298 12.15C10.2598 12.285 10.1248 12.555 10.2598 12.825C10.7998 13.635 11.4748 14.445 12.1498 15.12C12.9598 15.795 13.7698 16.335 14.7148 16.74C14.9848 16.875 15.2548 16.875 15.3898 16.605C15.5248 16.335 16.1998 15.66 16.4698 15.39C16.7398 15.12 16.8748 15.12 17.1448 15.255L19.3048 16.335C19.5748 16.47 19.8448 16.605 19.9798 16.74C20.1148 17.145 20.1148 17.685 19.8448 18.09Z" fill="#DFA100"/>
</svg>
