<svg width="20" height="20" viewBox="0 0 20 20" fill="none" xmlns="http://www.w3.org/2000/svg">
<path d="M10 0.515625C4.91406 0.515625 0.78125 4.76563 0.78125 10C0.78125 15.2344 4.90625 19.4844 10 19.4844C11.9609 19.4844 13.7656 18.8281 15.2578 17.75C15.6562 17.375 15.8984 17.3359 15.8984 16.9297L15.9062 16.8516C15.9062 16.375 15.5312 15.9922 15.0703 15.9922C14.8281 15.9922 14.6172 16.0938 14.4688 16.2656C13.2188 17.2031 11.6875 17.7656 10.0156 17.7656C5.84375 17.7656 2.46094 14.2891 2.46094 10C2.46094 5.71094 5.84375 2.22656 10.0156 2.22656C14.1875 2.22656 17.5703 5.70313 17.5703 10C17.5703 11.1875 17.3047 12.3047 16.8438 13.3125C16.8438 13.3125 16.6406 13.7031 16.4531 14.25L16.4453 14.3281C16.4453 14.8047 16.8203 15.1875 17.2812 15.1875C17.6562 15.1875 17.9609 14.9297 18.0703 14.5703C18.7969 13.2188 19.2109 11.6563 19.2109 10C19.2188 4.76563 15.0938 0.515625 10 0.515625ZM4.85156 8.96875C4.85938 9.16406 4.94531 9.35938 5.08594 9.5C5.23438 9.64844 5.42969 9.72656 5.61719 9.73438C5.64844 9.73438 5.67188 9.73438 5.70312 9.73438H14.2344C14.6875 9.73438 15.0469 9.36719 15.0469 8.91406C15.0469 8.46094 14.6797 8.09375 14.2344 8.09375L7.57812 8.11719L8.54688 7.14063C8.85156 6.83594 8.85156 6.32813 8.54688 6.02344C8.24219 5.71875 7.73438 5.71875 7.42969 6.02344L5.09375 8.38281C4.95312 8.52344 4.88281 8.69531 4.86719 8.88281H4.85938C4.85156 8.88281 4.85156 8.9375 4.85156 8.96875ZM11.3672 14.4141C11.6719 14.7188 12.1797 14.7188 12.4844 14.4141L14.8203 12.0625C14.9609 11.9219 15.0391 11.75 15.0469 11.5625H15.0547C15.0547 11.5625 15.0547 11.5078 15.0547 11.4766C15.0469 11.2812 14.9609 11.0938 14.8203 10.9453C14.6719 10.7969 14.4766 10.7188 14.2891 10.7109C14.2578 10.7109 14.2344 10.7109 14.2031 10.7109H5.67188C5.21875 10.7109 4.85156 11.0781 4.85156 11.5234C4.85156 11.9688 5.21875 12.3438 5.67188 12.3438L12.3359 12.3359L11.3672 13.3125C11.0625 13.6094 11.0625 14.1094 11.3672 14.4141Z" fill="white"/>
</svg>
